mtllib material.mtl
usemtl material_0
v 0.31950000 -0.02550000 -0.00000000
v 0.31950000 -0.02332200 -0.01375100
v 0.31950000 -0.01700100 -0.02615600
v 0.31950000 -0.00715600 -0.03600100
v 0.31950000 0.00524900 -0.04232200
v 0.31950000 0.01900000 -0.04450000
v 0.31950000 0.03275100 -0.04232200
v 0.31950000 0.04515600 -0.03600100
v 0.31950000 0.05500100 -0.02615600
v 0.31950000 0.06132200 -0.01375100
v 0.31950000 0.06350000 -0.00000000
v 0.31950000 0.06350000 -0.00000000
v 0.33400000 0.07800000 -0.00000000
v 0.33400000 0.07800000 -0.00000000
v 0.33400000 0.07599000 -0.01527000
v 0.33400000 0.07009600 -0.02950000
v 0.33400000 0.06071900 -0.04171900
v 0.33400000 0.04850000 -0.05109600
v 0.33400000 0.03427000 -0.05699000
v 0.33400000 0.01900000 -0.05900000
v 0.33400000 0.00373000 -0.05699000
v 0.33400000 -0.01050000 -0.05109600
v 0.33400000 -0.02271900 -0.04171900
v 0.33400000 -0.03209600 -0.02950000
v 0.33400000 -0.03799000 -0.01527000
v 0.33400000 -0.04000000 -0.00000000
v 0.08850000 0.06350000 0.00000000
v 0.08850000 0.06132200 -0.01375100
v 0.08850000 0.05500100 -0.02615600
v 0.08850000 0.04515600 -0.03600100
v 0.08850000 0.03275100 -0.04232200
v 0.08850000 0.01900000 -0.04450000
v 0.08850000 0.00524900 -0.04232200
v 0.08850000 -0.00715600 -0.03600100
v 0.08850000 -0.01700100 -0.02615600
v 0.08850000 -0.02332200 -0.01375100
v 0.08850000 -0.02550000 0.00000000
v 0.08850000 -0.02550000 0.00000000
v 0.07400000 -0.04000000 0.00000000
v 0.07400000 -0.04000000 0.00000000
v 0.07400000 -0.03799000 -0.01527000
v 0.07400000 -0.03209600 -0.02950000
v 0.07400000 -0.02271900 -0.04171900
v 0.07400000 -0.01050000 -0.05109600
v 0.07400000 0.00373000 -0.05699000
v 0.07400000 0.01900000 -0.05900000
v 0.07400000 0.03427000 -0.05699000
v 0.07400000 0.04850000 -0.05109600
v 0.07400000 0.06071900 -0.04171900
v 0.07400000 0.07009600 -0.02950000
v 0.07400000 0.07599000 -0.01527000
v 0.07400000 0.07800000 0.00000000
v 0.31950000 -0.02332200 0.01375100
v 0.31950000 -0.01700100 0.02615600
v 0.31950000 -0.00715600 0.03600100
v 0.31950000 0.00524900 0.04232200
v 0.31950000 0.01900000 0.04450000
v 0.31950000 0.03275100 0.04232200
v 0.31950000 0.04515600 0.03600100
v 0.31950000 0.05500100 0.02615600
v 0.31950000 0.06132200 0.01375100
v 0.08850000 0.06132200 0.01375100
v 0.08850000 0.05500100 0.02615600
v 0.08850000 0.04515600 0.03600100
v 0.08850000 0.03275100 0.04232200
v 0.08850000 0.01900000 0.04450000
v 0.08850000 0.00524900 0.04232200
v 0.08850000 -0.00715600 0.03600100
v 0.08850000 -0.01700100 0.02615600
v 0.08850000 -0.02332200 0.01375100
v 0.33400000 0.07599000 0.01527000
v 0.33400000 0.07009600 0.02950000
v 0.33400000 0.06071900 0.04171900
v 0.33400000 0.04850000 0.05109600
v 0.33400000 0.03427000 0.05699000
v 0.33400000 0.01900000 0.05900000
v 0.33400000 0.00373000 0.05699000
v 0.33400000 -0.01050000 0.05109600
v 0.33400000 -0.02271900 0.04171900
v 0.33400000 -0.03209600 0.02950000
v 0.33400000 -0.03799000 0.01527000
v 0.07400000 -0.03799000 0.01527000
v 0.07400000 -0.03209600 0.02950000
v 0.07400000 -0.02271900 0.04171900
v 0.07400000 -0.01050000 0.05109600
v 0.07400000 0.00373000 0.05699000
v 0.07400000 0.01900000 0.05900000
v 0.07400000 0.03427000 0.05699000
v 0.07400000 0.04850000 0.05109600
v 0.07400000 0.06071900 0.04171900
v 0.07400000 0.07009600 0.02950000
v 0.07400000 0.07599000 0.01527000
vn -0.40100000 -0.91610000 0.00000000
vn -0.40250000 -0.87090000 -0.28190000
vn -0.40410000 -0.74020000 -0.53740000
vn -0.40410000 -0.53740000 -0.74020000
vn -0.40250000 -0.28190000 -0.87090000
vn -0.40100000 0.00000000 -0.91610000
vn -0.40250000 0.28190000 -0.87090000
vn -0.40410000 0.53740000 -0.74020000
vn -0.40410000 0.74020000 -0.53740000
vn -0.40250000 0.87090000 -0.28190000
vn -0.40100000 0.91610000 0.00000000
vn -0.40100000 0.91610000 0.00000000
vn -0.37840000 0.92560000 0.00000000
vn -0.37840000 0.92560000 0.00000000
vn -0.37890000 0.89430000 -0.23790000
vn -0.37660000 0.80180000 -0.46390000
vn -0.37360000 0.65520000 -0.65650000
vn -0.37360000 0.46310000 -0.80360000
vn -0.37440000 0.23800000 -0.89620000
vn -0.37430000 0.00000000 -0.92730000
vn -0.37440000 -0.23800000 -0.89620000
vn -0.37360000 -0.46310000 -0.80360000
vn -0.37360000 -0.65520000 -0.65650000
vn -0.37660000 -0.80180000 -0.46390000
vn -0.37890000 -0.89430000 -0.23790000
vn -0.37840000 -0.92560000 0.00000000
vn 0.40100000 0.91610000 0.00000000
vn 0.40250000 0.87090000 -0.28190000
vn 0.40410000 0.74020000 -0.53740000
vn 0.40410000 0.53740000 -0.74020000
vn 0.40250000 0.28190000 -0.87090000
vn 0.40100000 0.00000000 -0.91610000
vn 0.40250000 -0.28190000 -0.87090000
vn 0.40410000 -0.53740000 -0.74020000
vn 0.40410000 -0.74010000 -0.53740000
vn 0.40250000 -0.87090000 -0.28190000
vn 0.40100000 -0.91610000 0.00000000
vn 0.40100000 -0.91610000 0.00000000
vn 0.37840000 -0.92560000 0.00000000
vn 0.37840000 -0.92560000 0.00000000
vn 0.37890000 -0.89430000 -0.23790000
vn 0.37660000 -0.80180000 -0.46390000
vn 0.37360000 -0.65520000 -0.65650000
vn 0.37360000 -0.46310000 -0.80360000
vn 0.37440000 -0.23800000 -0.89620000
vn 0.37430000 0.00000000 -0.92730000
vn 0.37440000 0.23800000 -0.89620000
vn 0.37360000 0.46310000 -0.80360000
vn 0.37360000 0.65520000 -0.65650000
vn 0.37660000 0.80180000 -0.46390000
vn 0.37890000 0.89430000 -0.23790000
vn 0.37840000 0.92560000 0.00000000
vn -0.40250000 -0.87090000 0.28190000
vn -0.40410000 -0.74020000 0.53740000
vn -0.40410000 -0.53740000 0.74020000
vn -0.40250000 -0.28190000 0.87090000
vn -0.40100000 0.00000000 0.91610000
vn -0.40250000 0.28190000 0.87090000
vn -0.40410000 0.53740000 0.74020000
vn -0.40410000 0.74020000 0.53740000
vn -0.40250000 0.87090000 0.28190000
vn 0.40250000 0.87090000 0.28190000
vn 0.40410000 0.74020000 0.53740000
vn 0.40410000 0.53740000 0.74020000
vn 0.40250000 0.28190000 0.87090000
vn 0.40100000 0.00000000 0.91610000
vn 0.40250000 -0.28190000 0.87090000
vn 0.40410000 -0.53740000 0.74020000
vn 0.40410000 -0.74010000 0.53740000
vn 0.40250000 -0.87090000 0.28190000
vn -0.37890000 0.89430000 0.23790000
vn -0.37660000 0.80180000 0.46390000
vn -0.37360000 0.65520000 0.65650000
vn -0.37360000 0.46310000 0.80360000
vn -0.37440000 0.23800000 0.89620000
vn -0.37430000 0.00000000 0.92730000
vn -0.37440000 -0.23800000 0.89620000
vn -0.37360000 -0.46310000 0.80360000
vn -0.37360000 -0.65520000 0.65650000
vn -0.37660000 -0.80180000 0.46390000
vn -0.37890000 -0.89430000 0.23790000
vn 0.37890000 -0.89430000 0.23790000
vn 0.37660000 -0.80180000 0.46390000
vn 0.37360000 -0.65520000 0.65650000
vn 0.37360000 -0.46310000 0.80360000
vn 0.37440000 -0.23800000 0.89620000
vn 0.37430000 0.00000000 0.92730000
vn 0.37440000 0.23800000 0.89620000
vn 0.37360000 0.46310000 0.80360000
vn 0.37360000 0.65520000 0.65650000
vn 0.37660000 0.80180000 0.46390000
vn 0.37890000 0.89430000 0.23790000
vt 2.05061000 0.00000000
vt 2.05061000 1.62577400
vt 2.05061000 3.25154800
vt 2.05061000 4.87732300
vt 2.05061000 6.50309700
vt 2.05061000 8.12887100
vt 2.05061000 9.75464500
vt 2.05061000 11.38042000
vt 2.05061000 13.00619300
vt 2.05061000 14.63196800
vt 2.05061000 16.25774200
vt 2.05061000 -16.25774200
vt -0.00000000 -16.25774200
vt -0.00000000 16.25774200
vt -0.00000000 14.90293000
vt -0.00000000 13.54811900
vt -0.00000000 12.19330700
vt -0.00000000 10.83849400
vt -0.00000000 9.48368300
vt -0.00000000 8.12887100
vt -0.00000000 6.77405900
vt -0.00000000 5.41924700
vt -0.00000000 4.06443500
vt -0.00000000 2.70962400
vt -0.00000000 1.35481200
vt -0.00000000 0.00000000
vt -0.00000000 0.00000000
vt -0.00000000 1.62577400
vt -0.00000000 3.25154800
vt -0.00000000 4.87732300
vt -0.00000000 6.50309700
vt -0.00000000 8.12887100
vt -0.00000000 9.75464500
vt -0.00000000 11.38042000
vt -0.00000000 13.00619300
vt -0.00000000 14.63196800
vt -0.00000000 -16.25774200
vt -0.00000000 16.25774200
vt -2.05061000 -16.25774200
vt -2.05061000 16.25774200
vt -2.05061000 14.90293000
vt -2.05061000 13.54811900
vt -2.05061000 12.19330700
vt -2.05061000 10.83849400
vt -2.05061000 9.48368300
vt -2.05061000 8.12887100
vt -2.05061000 6.77405900
vt -2.05061000 5.41924700
vt -2.05061000 4.06443500
vt -2.05061000 2.70962400
vt -2.05061000 1.35481200
vt -2.05061000 0.00000000
vt 2.05061000 -1.62577400
vt 2.05061000 -3.25154800
vt 2.05061000 -4.87732300
vt 2.05061000 -6.50309700
vt 2.05061000 -8.12887100
vt 2.05061000 -9.75464500
vt 2.05061000 -11.38042000
vt 2.05061000 -13.00619300
vt 2.05061000 -14.63196800
vt 0.00000000 -1.62577400
vt 0.00000000 -3.25154800
vt 0.00000000 -4.87732300
vt -0.00000000 -6.50309700
vt -0.00000000 -8.12887100
vt -0.00000000 -9.75464500
vt -0.00000000 -11.38042000
vt -0.00000000 -13.00619300
vt -0.00000000 -14.63196800
vt -0.00000000 -14.90293000
vt -0.00000000 -13.54811900
vt -0.00000000 -12.19330700
vt -0.00000000 -10.83849400
vt -0.00000000 -9.48368300
vt -0.00000000 -8.12887100
vt -0.00000000 -6.77405900
vt -0.00000000 -5.41924700
vt -0.00000000 -4.06443500
vt -0.00000000 -2.70962400
vt -0.00000000 -1.35481200
vt -2.05061000 -14.90293000
vt -2.05061000 -13.54811900
vt -2.05061000 -12.19330700
vt -2.05061000 -10.83849400
vt -2.05061000 -9.48368300
vt -2.05061000 -8.12887100
vt -2.05061000 -6.77405900
vt -2.05061000 -5.41924700
vt -2.05061000 -4.06443500
vt -2.05061000 -2.70962400
vt -2.05061000 -1.35481200
f 26/26/26 1/1/1 25/25/25
f 25/25/25 1/1/1 2/2/2
f 25/25/25 2/2/2 24/24/24
f 24/24/24 2/2/2 3/3/3
f 24/24/24 3/3/3 23/23/23
f 23/23/23 3/3/3 4/4/4
f 23/23/23 4/4/4 22/22/22
f 22/22/22 4/4/4 5/5/5
f 22/22/22 5/5/5 21/21/21
f 21/21/21 5/5/5 6/6/6
f 21/21/21 6/6/6 20/20/20
f 20/20/20 6/6/6 19/19/19
f 19/19/19 6/6/6 7/7/7
f 19/19/19 7/7/7 18/18/18
f 18/18/18 7/7/7 8/8/8
f 18/18/18 8/8/8 17/17/17
f 17/17/17 8/8/8 9/9/9
f 17/17/17 9/9/9 16/16/16
f 16/16/16 9/9/9 10/10/10
f 16/16/16 10/10/10 15/15/15
f 15/15/15 10/10/10 11/11/11
f 15/15/15 11/11/11 14/14/14
f 52/52/52 27/27/27 51/51/51
f 51/51/51 27/27/27 28/28/28
f 51/51/51 28/28/28 50/50/50
f 50/50/50 28/28/28 29/29/29
f 50/50/50 29/29/29 49/49/49
f 49/49/49 29/29/29 30/30/30
f 49/49/49 30/30/30 48/48/48
f 48/48/48 30/30/30 31/31/31
f 48/48/48 31/31/31 47/47/47
f 47/47/47 31/31/31 32/32/32
f 47/47/47 32/32/32 46/46/46
f 46/46/46 32/32/32 45/45/45
f 45/45/45 32/32/32 33/33/33
f 45/45/45 33/33/33 44/44/44
f 44/44/44 33/33/33 34/34/34
f 44/44/44 34/34/34 43/43/43
f 43/43/43 34/34/34 35/35/35
f 43/43/43 35/35/35 42/42/42
f 42/42/42 35/35/35 36/36/36
f 42/42/42 36/36/36 41/41/41
f 41/41/41 36/36/36 38/38/38
f 41/41/41 38/38/38 40/40/40
f 39/39/39 37/37/37 82/82/82
f 82/82/82 37/37/37 70/70/70
f 82/82/82 70/70/70 83/83/83
f 83/83/83 70/70/70 69/69/69
f 83/83/83 69/69/69 84/84/84
f 84/84/84 69/69/69 68/68/68
f 84/84/84 68/68/68 85/85/85
f 85/85/85 68/68/68 67/67/67
f 85/85/85 67/67/67 86/86/86
f 86/86/86 67/67/67 66/66/66
f 86/86/86 66/66/66 87/87/87
f 87/87/87 66/66/66 88/88/88
f 88/88/88 66/66/66 65/65/65
f 88/88/88 65/65/65 89/89/89
f 89/89/89 65/65/65 64/64/64
f 89/89/89 64/64/64 90/90/90
f 90/90/90 64/64/64 63/63/63
f 90/90/90 63/63/63 91/91/91
f 91/91/91 63/63/63 62/62/62
f 91/91/91 62/62/62 92/92/92
f 92/92/92 62/62/62 27/27/27
f 92/92/92 27/27/27 52/52/52
f 13/13/13 12/12/12 71/71/71
f 71/71/71 12/12/12 61/61/61
f 71/71/71 61/61/61 72/72/72
f 72/72/72 61/61/61 60/60/60
f 72/72/72 60/60/60 73/73/73
f 73/73/73 60/60/60 59/59/59
f 73/73/73 59/59/59 74/74/74
f 74/74/74 59/59/59 58/58/58
f 74/74/74 58/58/58 75/75/75
f 75/75/75 58/58/58 57/57/57
f 75/75/75 57/57/57 76/76/76
f 76/76/76 57/57/57 77/77/77
f 77/77/77 57/57/57 56/56/56
f 77/77/77 56/56/56 78/78/78
f 78/78/78 56/56/56 55/55/55
f 78/78/78 55/55/55 79/79/79
f 79/79/79 55/55/55 54/54/54
f 79/79/79 54/54/54 80/80/80
f 80/80/80 54/54/54 53/53/53
f 80/80/80 53/53/53 81/81/81
f 81/81/81 53/53/53 1/1/1
f 81/81/81 1/1/1 26/26/26

